<?xml version="1.0" standalone="no"?>
<!DOCTYPE svg PUBLIC "-//W3C//DTD SVG 20010904//EN"
 "http://www.w3.org/TR/2001/REC-SVG-20010904/DTD/svg10.dtd">
<svg version="1.0" xmlns="http://www.w3.org/2000/svg"
 width="1024.000000pt" height="1024.000000pt" viewBox="0 0 1024.000000 1024.000000"
 preserveAspectRatio="xMidYMid meet">

<g transform="translate(0.000000,1024.000000) scale(0.100000,-0.100000)"
fill="#000000" stroke="none">
<path d="M4663 8460 c-133 -48 -248 -168 -285 -299 -15 -54 -17 -84 -12 -168
l7 -102 -35 -48 c-48 -64 -52 -94 -33 -208 16 -90 16 -102 0 -172 -11 -48 -16
-105 -13 -157 3 -75 6 -85 39 -131 l36 -50 -8 -115 c-4 -63 -8 -907 -9 -1875
l-2 -1760 42 -90 c23 -49 60 -133 82 -185 22 -52 59 -140 83 -195 23 -55 100
-212 171 -350 71 -137 138 -270 149 -295 42 -97 138 -271 165 -300 54 -58 113
-36 151 57 12 32 37 85 55 118 18 33 35 71 39 85 4 14 11 27 15 30 11 8 125
240 140 285 7 22 19 45 26 50 8 6 25 39 40 75 14 36 32 72 40 81 8 8 26 44 40
80 14 35 34 75 44 89 9 14 25 48 34 77 10 28 26 63 36 76 11 13 30 54 43 90
13 36 31 73 40 82 9 9 23 37 31 63 8 26 21 65 29 87 12 32 13 66 6 175 -4 74
-8 910 -8 1857 0 1525 2 1723 15 1734 28 23 56 92 62 152 4 45 -1 76 -18 133
-24 75 -24 76 -7 157 28 136 22 187 -31 257 -26 34 -27 39 -27 175 0 137 -1
142 -32 208 -42 89 -121 168 -210 210 l-68 32 -405 2 c-372 2 -409 0 -457 -17z
m997 -690 c11 -7 15 -28 15 -82 l0 -73 -580 0 -580 0 -3 53 c-3 47 0 56 27 82
l29 30 539 0 c321 0 544 -4 553 -10z m29 -429 c-2 -44 -6 -82 -9 -85 -3 -3
-261 -6 -573 -7 -508 -1 -570 1 -592 15 -43 28 -46 90 -5 134 l21 22 580 0
581 0 -3 -79z m-915 -331 c3 -25 6 -807 7 -1737 l2 -1693 -61 -63 -61 -64 -49
34 -49 34 -6 211 c-4 116 -7 912 -7 1769 l0 1558 109 -2 109 -2 6 -45z m436
-1675 c0 -946 3 -1729 6 -1740 4 -15 -10 -36 -53 -81 l-58 -61 -62 61 -63 61
-2 1740 -3 1741 118 0 117 0 0 -1721z m433 -41 l-2 -1756 -42 -31 c-23 -18
-48 -36 -55 -42 -10 -7 -28 4 -69 45 l-54 55 -3 1743 -3 1742 115 0 115 0 -2
-1756z m-595 -2029 c13 -4 40 -4 60 0 41 8 156 85 172 115 6 11 14 20 19 20 4
0 34 -24 66 -52 32 -29 67 -58 79 -65 29 -17 101 -16 136 2 l30 15 -24 -52
c-104 -228 -126 -280 -141 -323 -9 -28 -24 -66 -33 -85 l-17 -35 -303 -3
c-263 -2 -302 0 -302 13 0 8 -31 83 -69 167 -38 84 -74 171 -81 193 -7 22 -24
62 -37 89 l-24 48 23 -16 c28 -20 84 -21 120 -2 15 8 44 30 65 49 21 20 49 45
62 56 l24 21 76 -73 c42 -41 87 -77 99 -82z"/>
</g>
</svg>
