<?xml version="1.0" standalone="no"?>
<!DOCTYPE svg PUBLIC "-//W3C//DTD SVG 20010904//EN"
 "http://www.w3.org/TR/2001/REC-SVG-20010904/DTD/svg10.dtd">
<svg version="1.0" xmlns="http://www.w3.org/2000/svg"
 width="1024.000000pt" height="1024.000000pt" viewBox="0 0 1024.000000 1024.000000"
 preserveAspectRatio="xMidYMid meet">

<g transform="translate(0.000000,1024.000000) scale(0.100000,-0.100000)"
fill="#000000" stroke="none">
<path d="M5015 8130 c-74 -13 -264 -94 -585 -250 -157 -75 -458 -221 -670
-323 -212 -102 -527 -253 -700 -337 -173 -84 -344 -162 -380 -175 -250 -87
-405 -207 -489 -379 -88 -181 -93 -318 -18 -476 23 -48 60 -95 142 -180 61
-63 165 -176 230 -250 66 -74 172 -189 235 -255 64 -66 171 -183 237 -260 144
-168 198 -227 413 -459 91 -98 194 -212 229 -254 35 -43 111 -131 170 -196
335 -377 400 -454 568 -675 65 -85 140 -172 167 -194 64 -50 166 -101 236
-117 93 -21 90 -18 90 -128 0 -116 18 -466 26 -504 3 -14 17 -38 31 -52 32
-32 89 -35 124 -7 27 21 68 97 99 183 23 62 102 158 131 158 10 0 60 -40 111
-89 110 -104 126 -114 173 -105 73 13 90 76 60 219 -8 39 -21 144 -30 235 -8
91 -20 194 -26 229 -12 75 -8 80 79 115 47 19 266 122 707 334 132 63 368 175
525 247 503 234 843 396 907 431 67 37 106 78 134 139 21 46 23 83 8 140 -13
50 -135 170 -256 252 -46 31 -83 62 -83 68 0 6 9 28 20 50 26 51 25 77 -5 150
-14 33 -25 64 -25 68 0 4 26 33 59 63 71 65 91 105 91 176 0 80 -34 127 -205
289 -82 78 -332 323 -555 543 -223 221 -450 444 -505 496 -55 52 -194 187
-310 300 -339 331 -647 626 -690 660 -119 95 -319 146 -470 120z m210 -251
c59 -16 153 -96 415 -354 129 -127 435 -425 680 -662 245 -237 598 -584 784
-771 l339 -340 -69 -35 c-38 -19 -109 -49 -159 -67 -49 -18 -153 -64 -230
-103 -77 -38 -226 -107 -330 -152 -182 -79 -719 -320 -910 -407 -49 -23 -112
-54 -140 -69 -120 -66 -461 -209 -499 -209 -18 0 -50 28 -123 107 -162 177
-437 468 -597 633 -83 85 -390 400 -682 700 -625 643 -724 747 -724 765 0 7
30 25 68 40 37 14 91 39 120 55 l52 28 53 -63 c70 -84 360 -387 827 -865 482
-492 651 -667 725 -750 32 -36 136 -145 231 -242 141 -145 178 -178 207 -183
42 -8 101 16 123 51 27 41 -3 82 -238 325 -123 127 -295 305 -382 397 -88 92
-243 253 -345 357 -102 105 -280 289 -396 410 -115 121 -296 306 -401 412
-106 105 -197 200 -203 211 -9 17 26 36 423 230 239 117 437 212 440 212 4 0
111 52 239 116 193 96 422 203 487 227 27 10 174 7 215 -4z m-2423 -1112 l35
-53 -95 -49 c-142 -74 -242 -184 -287 -318 -11 -34 -25 -63 -30 -65 -17 -6
-47 101 -49 173 -1 76 11 106 68 180 36 47 44 54 113 95 42 26 177 85 204 89
3 1 22 -23 41 -52z m358 -384 c85 -92 161 -175 168 -185 12 -16 3 -22 -89 -68
-55 -27 -121 -66 -145 -86 -71 -58 -131 -147 -155 -228 -12 -39 -23 -72 -24
-74 -5 -5 -156 154 -223 235 -50 60 -61 80 -67 122 -10 72 1 125 41 211 30 63
45 82 94 118 54 39 212 121 235 122 6 0 80 -75 165 -167z m384 -398 c15 -20
146 -157 292 -306 145 -148 264 -276 264 -283 0 -7 -19 -18 -42 -25 -82 -25
-195 -91 -246 -145 -54 -56 -124 -184 -143 -260 l-11 -45 -102 107 c-56 59
-146 157 -201 217 -54 61 -123 134 -153 164 -30 30 -60 69 -68 86 -20 49 -28
155 -15 212 26 123 138 235 289 288 90 33 105 31 136 -10z m3867 -545 c23 -13
25 -56 5 -103 -18 -43 -85 -100 -144 -122 -26 -10 -105 -47 -175 -82 -70 -35
-160 -77 -200 -93 -40 -16 -126 -55 -192 -88 -66 -32 -130 -62 -142 -66 -12
-4 -84 -38 -161 -76 -76 -38 -160 -74 -186 -81 -25 -6 -46 -15 -46 -19 0 -4
-30 -21 -67 -36 -38 -16 -92 -43 -122 -61 -49 -30 -74 -38 -106 -34 -6 0 -23
-10 -39 -24 -15 -13 -60 -36 -99 -51 -40 -15 -78 -34 -85 -41 -7 -7 -19 -13
-25 -14 -45 -2 -73 -11 -110 -33 -43 -26 -189 -99 -262 -130 -22 -10 -123 -59
-225 -110 -207 -103 -211 -106 -218 -212 -3 -40 3 -87 16 -140 11 -43 23 -109
27 -146 7 -63 6 -68 -12 -68 -50 0 -161 100 -194 174 -42 96 -49 252 -14 312
9 16 28 50 43 75 49 84 172 168 357 244 50 20 165 70 257 111 91 41 169 74
174 74 9 0 299 124 479 205 77 35 183 81 235 103 52 22 199 88 325 147 561
263 852 394 873 395 7 0 22 -5 33 -10z m-3101 -242 c13 -18 92 -104 174 -191
83 -87 152 -161 154 -166 1 -4 -43 -29 -97 -55 -111 -52 -190 -109 -247 -176
-37 -44 -106 -179 -119 -233 -4 -15 -10 -27 -14 -25 -11 5 -212 220 -252 270
-65 82 -75 191 -31 323 32 95 42 110 106 159 56 43 114 71 211 102 91 29 87
29 115 -8z m3159 -122 c13 -14 24 -38 24 -58 2 -32 0 -34 -93 -81 -156 -78
-522 -253 -730 -348 -107 -49 -303 -143 -435 -208 -252 -126 -628 -301 -643
-301 -5 0 -53 -27 -108 -60 -54 -33 -107 -60 -116 -60 -9 0 -50 14 -91 30 -75
30 -137 39 -137 20 0 -5 6 -10 13 -10 24 0 45 -33 68 -105 12 -38 32 -88 45
-110 39 -69 93 -240 108 -347 21 -149 30 -258 20 -258 -5 0 -30 7 -55 16 -58
21 -82 15 -143 -36 -26 -22 -52 -40 -56 -40 -10 0 -28 163 -36 330 -6 148 -22
246 -61 388 -25 89 -32 99 -66 93 -27 -5 16 25 86 61 45 22 115 63 156 91 84
56 188 107 341 165 163 62 837 374 1138 526 40 20 94 45 120 55 26 11 142 65
257 122 197 96 319 147 356 148 8 1 26 -10 38 -23z m197 -200 c12 -49 -37 -93
-166 -146 -36 -15 -184 -85 -330 -154 -146 -70 -323 -155 -395 -189 -71 -34
-277 -135 -457 -224 -181 -90 -331 -163 -334 -163 -3 0 -70 -31 -147 -69 -78
-38 -177 -85 -220 -105 l-77 -35 -35 47 -34 47 35 7 c19 4 55 18 82 32 26 13
79 35 117 49 149 53 447 194 633 299 20 11 116 58 213 103 331 157 954 455
1019 489 79 42 88 43 96 12z m-2836 -244 c14 -20 26 -40 28 -43 1 -3 -48 -37
-110 -75 -137 -83 -216 -159 -248 -241 -24 -59 -93 -163 -110 -163 -14 0 -33
111 -27 166 10 96 88 221 177 283 47 33 224 109 255 110 6 1 21 -16 35 -37z"/>
<path d="M5011 7706 c-28 -15 -50 -52 -51 -83 0 -29 52 -71 98 -78 20 -4 59
-11 85 -16 73 -14 133 -11 151 7 19 18 21 72 5 107 -15 32 -42 44 -146 62
-103 18 -111 18 -142 1z"/>
<path d="M6950 5953 c-8 -3 -21 -12 -27 -21 -15 -19 -17 -135 -3 -162 21 -39
160 -57 178 -22 16 29 23 90 16 127 -10 54 -48 85 -103 84 -25 0 -53 -3 -61
-6z"/>
</g>
</svg>
